 <svg  version="1.0" xmlns="http://www.w3.org/2000/svg"  width="900.000000pt" height="900.000000pt" viewBox="0 0 900.000000 900.000000"  preserveAspectRatio="xMidYMid meet">  <g transform="translate(0.000000,900.000000) scale(0.100000,-0.100000)" fill="#ffffff" stroke="none"> <path d="M1892 5318 c-16 -16 -17 -883 -2 -893 14 -8 430 -8 439 0 3 4 8 109 11 233 l5 227 132 -2 c92 -2 143 -7 169 -18 20 -8 43 -15 51 -15 33 0 171 -78 224 -127 50 -47 129 -159 129 -183 0 -5 6 -24 14 -42 27 -62 49 -224 43 -306 -17 -212 -68 -335 -184 -448 -51 -51 -180 -124 -217 -124 -7 0 -30 -7 -51 -15 -26 -11 -76 -17 -173 -18 l-137 -2 -3 219 c-1 143 -6 224 -14 233 -8 11 -55 13 -227 11 l-216 -3 -3 -448 -2 -447 27 -11 c43 -17 623 -4 732 17 112 21 198 42 239 60 18 8 40 14 48 14 9 0 28 6 42 14 15 8 47 24 72 36 98 47 167 94 233 159 62 59 149 170 166 212 6 13 15 31 20 39 26 47 61 143 72 200 4 25 13 61 19 80 7 21 12 123 12 255 1 177 -2 236 -17 300 -53 240 -140 398 -293 533 -38 34 -74 62 -80 62 -5 0 -14 6 -20 13 -6 6 -41 27 -79 45 -37 19 -77 39 -88 45 -11 5 -33 14 -50 18 -16 4 -43 12 -60 18 -57 19 -151 40 -252 55 -131 20 -712 23 -731 4z"/> <path d="M3616 5308 c-14 -20 -16 -138 -16 -1070 0 -753 3 -1054 11 -1072 6 -13 21 -27 33 -30 43 -12 402 -6 414 6 9 9 12 120 12 440 0 336 3 428 13 428 6 0 189 0 405 0 335 0 397 2 422 15 l30 16 0 194 c0 189 -1 194 -22 209 -19 14 -78 16 -435 16 l-413 0 2 213 3 212 290 3 c159 1 293 6 297 10 7 7 13 341 9 420 -1 9 -112 12 -520 12 l-520 0 -15 -22z"/> <path d="M6460 5303 c-11 -16 -43 -59 -70 -98 -27 -38 -58 -83 -70 -100 -12 -16 -42 -60 -68 -96 -250 -354 -261 -369 -271 -369 -5 0 -37 39 -71 88 -35 48 -81 111 -103 140 l-39 52 -269 0 c-147 0 -270 -4 -273 -9 -6 -9 13 -38 94 -150 25 -34 74 -104 110 -154 36 -51 90 -126 120 -167 109 -151 140 -198 140 -209 0 -6 -20 -39 -45 -73 -24 -35 -72 -101 -105 -148 -33 -47 -95 -134 -138 -193 -42 -59 -111 -155 -152 -213 -41 -58 -100 -140 -130 -182 -138 -191 -162 -231 -156 -256 3 -13 16 -26 28 -30 13 -3 124 -6 247 -6 l224 0 31 33 c17 18 44 53 61 78 32 49 119 169 256 358 50 68 107 148 126 177 20 30 39 51 44 48 12 -7 120 -150 152 -201 56 -88 37 -84 337 -81 290 3 285 2 242 62 -58 79 -133 184 -152 211 -11 17 -45 64 -75 105 -30 41 -64 89 -75 105 -12 17 -50 69 -85 118 l-64 87 43 63 c24 35 70 100 102 144 33 44 95 131 139 192 44 62 91 127 105 146 14 19 59 81 100 139 41 58 110 154 153 213 104 141 110 154 91 182 -15 21 -21 21 -264 21 l-248 0 -22 -27z m474 -22 c6 -9 -61 -112 -178 -273 -39 -53 -105 -144 -146 -202 -96 -134 -205 -286 -300 -417 -41 -57 -83 -116 -93 -131 l-17 -29 45 -62 c25 -34 86 -118 135 -187 49 -69 111 -154 137 -190 88 -120 132 -188 126 -194 -4 -3 -100 -6 -214 -6 l-208 0 -53 75 c-122 172 -179 245 -193 245 -8 0 -15 -4 -15 -9 0 -5 -35 -57 -77 -116 -43 -58 -111 -152 -151 -208 -147 -207 -252 -353 -269 -374 -18 -22 -23 -23 -225 -23 -199 0 -208 1 -208 19 0 11 4 22 9 25 5 3 25 30 45 58 19 29 64 94 100 143 35 50 74 104 86 120 11 17 44 63 73 102 29 40 85 119 125 175 40 57 94 132 119 168 119 165 163 232 163 245 0 7 -35 61 -77 120 -43 58 -112 153 -153 211 -41 58 -100 140 -131 182 -64 90 -75 112 -57 124 16 10 389 10 404 0 11 -7 80 -100 179 -239 32 -46 62 -83 66 -83 9 0 27 24 110 143 62 89 178 254 241 341 24 33 65 91 91 130 27 39 60 83 75 99 l26 27 202 0 c112 0 205 -4 208 -9z"/> </g> </svg> 
