<?xml version="1.0" encoding="UTF-8"?>
<svg version="1.1" xmlns="http://www.w3.org/2000/svg" width="500" height="500">
<path d="M0 0 C1.051875 0.78375 2.10375 1.5675 3.1875 2.375 C3.1875 3.035 3.1875 3.695 3.1875 4.375 C4.05761719 4.75011719 4.05761719 4.75011719 4.9453125 5.1328125 C14.58243196 10.47184384 19.57867812 22.50240798 23.1875 32.375 C24.91513461 40.07791221 24.91513461 40.07791221 22.75 43.9375 C22.234375 44.411875 21.71875 44.88625 21.1875 45.375 C18.27043793 45.05964194 16.6539182 44.87258971 14.609375 42.69140625 C12.94863494 39.98585994 12.39144555 37.66614027 11.75 34.5625 C10.54951998 29.4166924 9.08836143 25.77024459 6.1875 21.375 C5.548125 20.34375 4.90875 19.3125 4.25 18.25 C-1.52940659 10.19385748 -9.55595713 5.39323975 -19.33203125 3.59375 C-31.10865596 2.55518152 -40.69484844 5.32031809 -49.8984375 12.6171875 C-58.07548295 20.12671904 -63.11888783 29.438095 -64.0859375 40.50390625 C-64.31450946 48.23139663 -63.3609094 53.86976107 -60.00390625 60.8515625 C-58.8125 63.375 -58.8125 63.375 -58.33984375 65.6484375 C-58.16582031 66.21820313 -57.99179688 66.78796875 -57.8125 67.375 C-56.3275 67.87 -56.3275 67.87 -54.8125 68.375 C-54.21308594 69.15617187 -53.61367187 69.93734375 -52.99609375 70.7421875 C-47.04445981 77.9182184 -36.18465475 80.07626222 -27.39453125 81.734375 C-24.8125 82.375 -24.8125 82.375 -22.8125 84.375 C-22.1875 87 -22.1875 87 -21.8125 89.375 C-26.10613119 92.23742079 -29.77273324 91.85114076 -34.8125 91.375 C-46.99842334 88.62915872 -58.65771224 81.57848546 -65.9453125 71.39453125 C-74.06478732 58.32376885 -77.27274017 45.89177645 -74.00390625 30.58984375 C-69.80037912 17.45563962 -61.30976243 6.92152527 -49.8125 -0.625 C-33.70021667 -8.84877252 -15.8317995 -9.36020427 0 0 Z " fill="#FCFCFC" transform="translate(188.8125,196.625)"/>
<path d="M0 0 C6.11935647 0.58947929 11.64241676 1.91496342 17.5 3.75 C18.37438721 4.01804443 19.24877441 4.28608887 20.1496582 4.56225586 C22.76884939 5.36729897 25.38491146 6.18173854 28 7 C28.72880371 7.22768066 29.45760742 7.45536133 30.20849609 7.68994141 C35.4861387 9.34038136 35.4861387 9.34038136 38.10009766 10.16821289 C41.62026836 11.27817259 45.14968381 12.33906508 48.69921875 13.3515625 C49.47950439 13.57513428 50.25979004 13.79870605 51.0637207 14.02905273 C52.57233705 14.4588339 54.08254317 14.8830842 55.59448242 15.30102539 C60.77957487 16.77957487 60.77957487 16.77957487 63 19 C63.125 21.875 63.125 21.875 62 25 C55.9401549 29.08112017 48.6578719 30.77968539 41.70703125 32.8515625 C40.48371094 33.23054688 39.26039063 33.60953125 38 34 C37.16202881 34.22026855 36.32405762 34.44053711 35.46069336 34.66748047 C31.93240824 36.5781244 31.37878013 38.77605968 29.921875 42.46875 C29.66496887 43.10486206 29.40806274 43.74097412 29.14337158 44.3963623 C28.32853496 46.42459084 27.53899647 48.46159876 26.75 50.5 C26.20479337 51.87175802 25.65793582 53.24286111 25.109375 54.61328125 C24.10767047 57.11927163 23.11801145 59.62878453 22.13574219 62.14257812 C21 65 21 65 20 67 C18.35 67 16.7 67 15 67 C12.46544748 61.47781151 10.73915949 55.94441328 9.15234375 50.0859375 C8.8949794 49.15327057 8.63761505 48.22060364 8.37245178 47.25967407 C7.55612356 44.2993786 6.74631398 41.33735654 5.9375 38.375 C5.12438925 35.40571312 4.30981544 32.43685224 3.49183655 29.46890259 C2.98462816 27.62774838 2.4802948 25.78579905 1.97923279 23.94296265 C0.85380097 19.85024629 -0.33514159 15.91340656 -2 12 C-2.94791618 8.17269935 -3.60922786 5.0595267 -1.5625 1.5 C-1.046875 1.005 -0.53125 0.51 0 0 Z " fill="#FCFCFC" transform="translate(167,240)"/>
<path d="M0 0 C11.51013443 14.46988328 11.51013443 14.46988328 10.8125 21.5625 C10.60625 22.614375 10.4 23.66625 10.1875 24.75 C4.4375 25.875 4.4375 25.875 2.1875 24.75 C1.70883452 23.22644279 1.30379486 21.67940513 0.9375 20.125 C-0.80531841 14.05548316 -3.44405928 9.91636972 -8.8046875 6.46875 C-12.36491539 4.58787489 -15.77869361 3.14354209 -19.8125 2.75 C-20.45703125 2.68683594 -21.1015625 2.62367188 -21.765625 2.55859375 C-28.02862305 2.21916553 -33.52254968 3.27423136 -38.8125 6.75 C-45.28362142 13.66813968 -48.21942884 19.80464037 -48.09375 29.21484375 C-47.39979076 35.47011521 -44.94356382 42.764192 -40.64453125 47.47265625 C-36.99756655 50.01542268 -32.75163979 51.32377333 -28.578125 52.76953125 C-25.8125 53.75 -25.8125 53.75 -24.8125 54.75 C-24.77169217 56.74958364 -24.76995644 58.75045254 -24.8125 60.75 C-31.55074477 62.54686527 -36.66064386 60.83035386 -42.8125 57.75 C-50.54520468 52.56869534 -55.23936197 45.6240273 -57.8125 36.75 C-59.48233218 25.89609084 -58.62720203 17.18945134 -52.8125 7.75 C-49.96898903 3.92807666 -46.92422575 0.24640492 -42.8125 -2.25 C-42.1525 -2.25 -41.4925 -2.25 -40.8125 -2.25 C-40.4825 -3.24 -40.1525 -4.23 -39.8125 -5.25 C-26.5044744 -12.68216704 -11.40320151 -9.1225612 0 0 Z " fill="#FCFCFC" transform="translate(186.8125,212.25)"/>
<path d="M0 0 C6.93 0 13.86 0 21 0 C22.98 4.29 24.96 8.58 27 13 C28.98 8.71 30.96 4.42 33 0 C36.3 0 39.6 0 43 0 C42.33397209 8.21434427 37.69692367 15.78219664 34 23 C33.34 24.32 32.68 25.64 32 27 C28.37 27 24.74 27 21 27 C19.89058762 24.83588599 18.78745131 22.66891807 17.6875 20.5 C17.37876953 19.89929688 17.07003906 19.29859375 16.75195312 18.6796875 C14.46844368 14.16074249 12.80100317 9.80267512 11 5 C10.67 12.26 10.34 19.52 10 27 C6.7 27 3.4 27 0 27 C0 18.09 0 9.18 0 0 Z " fill="#FCFCFC" transform="translate(263,254)"/>
<path d="M0 0 C12.54 0 25.08 0 38 0 C38 2.97 38 5.94 38 9 C35.69 9 33.38 9 31 9 C31 14.94 31 20.88 31 27 C27.04 27 23.08 27 19 27 C19 21.39 19 15.78 19 10 C16.69 9.34 14.38 8.68 12 8 C11.67 14.27 11.34 20.54 11 27 C9 28 9 28 0 27 C0 18.09 0 9.18 0 0 Z " fill="#FDFDFD" transform="translate(312,218)"/>
<path d="M0 0 C2.97 -0.0825 5.94 -0.165 9 -0.25 C10.37865234 -0.30462402 10.37865234 -0.30462402 11.78515625 -0.36035156 C18.57038925 -0.45054977 23.84407141 1.14948386 28.9375 5.75 C31.17344976 10.48495243 31.55536625 14.39560861 29.875 19.25 C27.46701319 22.78171399 24.8203747 25.08981265 21 27 C19.40552536 27.08400529 17.80759455 27.10727467 16.2109375 27.09765625 C15.36321777 27.09515869 14.51549805 27.09266113 13.64208984 27.09008789 C12.5639502 27.08098389 11.48581055 27.07187988 10.375 27.0625 C6.95125 27.041875 3.5275 27.02125 0 27 C0 18.09 0 9.18 0 0 Z M11 9 C11 12.3 11 15.6 11 19 C14.43230448 18.73606499 14.43230448 18.73606499 18 18 C20.36980013 15.04622502 20.36980013 15.04622502 20 11 C16.5647952 8.70986347 15.014669 8.82157027 11 9 Z " fill="#FCFCFC" transform="translate(238,218)"/>
<path d="M0 0 C0.804375 0.70125 1.60875 1.4025 2.4375 2.125 C2.4375 3.115 2.4375 4.105 2.4375 5.125 C1.7775 5.125 1.1175 5.125 0.4375 5.125 C0.4375 5.785 0.4375 6.445 0.4375 7.125 C-2.5625 9.125 -2.5625 9.125 -4.4375 8.8125 C-5.13875 8.585625 -5.84 8.35875 -6.5625 8.125 C-9.07426074 7.30568911 -9.07426074 7.30568911 -11.5625 7.125 C-13.51875978 8.08048981 -13.51875978 8.08048981 -14.5625 10.125 C-14.81298636 13.25049017 -14.81298636 13.25049017 -14.5625 16.125 C-12.2525 16.455 -9.9425 16.785 -7.5625 17.125 C-7.5625 14.815 -7.5625 12.505 -7.5625 10.125 C-4.2625 10.125 -0.9625 10.125 2.4375 10.125 C2.57254138 12.06059313 2.66951129 13.998872 2.75 15.9375 C2.80800781 17.01644531 2.86601562 18.09539062 2.92578125 19.20703125 C2.4375 22.125 2.4375 22.125 0.10546875 23.94921875 C-5.2137388 26.29340832 -9.80158239 26.883464 -15.5625 26.125 C-19.64088226 24.47585549 -22.60932626 22.16753378 -25.5625 18.9375 C-27.09100556 14.63857812 -27.35553897 10.62382854 -26.5625 6.125 C-20.25727498 -2.34201646 -9.34836216 -5.79554044 0 0 Z " fill="#FCFCFC" transform="translate(308.5625,219.875)"/>
<path d="M0 0 C3.19798218 1.72318457 4.30669064 2.58503597 6.375 5.6875 C6 8.375 6 8.375 5.375 10.6875 C3.125 11.375 3.125 11.375 0.375 11.6875 C-0.19734375 11.20796875 -0.7696875 10.7284375 -1.359375 10.234375 C-4.49761018 8.09171788 -6.85804656 8.25399042 -10.625 8.25 C-11.841875 8.23066406 -13.05875 8.21132812 -14.3125 8.19140625 C-17.66922078 8.4250184 -17.66922078 8.4250184 -20 10.4765625 C-22.35199098 13.67662714 -22.95061818 16.80178971 -22.625 20.6875 C-21.27062434 24.21437673 -19.30300386 27.00949614 -16.625 29.6875 C-16.95471479 32.98464793 -17.2476839 34.3101839 -19.625 36.6875 C-22.6532988 36.52811585 -24.30318223 35.92413071 -26.75 34.125 C-30.89528942 28.73612376 -32.21839303 23.02810741 -31.96875 16.27734375 C-31.26168424 10.95024607 -29.79857233 5.84131258 -25.90625 1.984375 C-18.13148999 -3.74786331 -8.62245727 -4.17944436 0 0 Z " fill="#FCFCFC" transform="translate(174.625,221.3125)"/>
<path d="M0 0 C3.63 0 7.26 0 11 0 C11.5775 1.32 12.155 2.64 12.75 4 C14.09236132 7.04047211 15.5072433 10.00112731 17.0625 12.9375 C19.36709606 17.4464923 20.64725285 22.13011027 22 27 C18.37 27 14.74 27 11 27 C10.67 25.68 10.34 24.36 10 23 C6.7 23 3.4 23 0 23 C-0.33 24.32 -0.66 25.64 -1 27 C-4.3 27 -7.6 27 -11 27 C-9.7330577 23.62349344 -8.461602 20.24880424 -7.1875 16.875 C-6.83107422 15.92367187 -6.47464844 14.97234375 -6.10742188 13.9921875 C-4.28896134 9.18744774 -2.41967451 4.53402731 0 0 Z M5 11 C4.67 12.32 4.34 13.64 4 15 C4.66 15 5.32 15 6 15 C5.67 13.68 5.34 12.36 5 11 Z " fill="#FCFCFC" transform="translate(359,218)"/>
<path d="M0 0 C7.26 0 14.52 0 22 0 C22 2.97 22 5.94 22 9 C20.20841511 9.02696365 18.41671527 9.04637917 16.625 9.0625 C15.62726563 9.07410156 14.62953125 9.08570313 13.6015625 9.09765625 C11 9 11 9 9 8 C9 8.66 9 9.32 9 10 C12.63 10 16.26 10 20 10 C20 12.31 20 14.62 20 17 C16.37 17 12.74 17 9 17 C9 17.66 9 18.32 9 19 C13.29 19 17.58 19 22 19 C22.33 21.64 22.66 24.28 23 27 C15.41 27 7.82 27 0 27 C0 18.09 0 9.18 0 0 Z " fill="#FBFBFB" transform="translate(307,254)"/>
<path d="M0 0 C7.92 0 15.84 0 24 0 C24 2.64 24 5.28 24 8 C20.35602463 10.33214424 17.24674388 10.23164058 13 10 C12.01 9.67 11.02 9.34 10 9 C10 9.66 10 10.32 10 11 C10.85464844 10.98839844 11.70929688 10.97679687 12.58984375 10.96484375 C13.69457031 10.95582031 14.79929688 10.94679688 15.9375 10.9375 C17.03964844 10.92589844 18.14179688 10.91429687 19.27734375 10.90234375 C22 11 22 11 23 12 C23.125 15 23.125 15 23 18 C21.26043342 19.73956658 18.8063378 19.37190386 16.4375 19.5625 C15.42558594 19.64628906 14.41367188 19.73007812 13.37109375 19.81640625 C12.58863281 19.87699219 11.80617187 19.93757813 11 20 C11.020625 20.969375 11.04125 21.93875 11.0625 22.9375 C11 26 11 26 10 27 C6.7 27 3.4 27 0 27 C0 18.09 0 9.18 0 0 Z " fill="#FCFCFC" transform="translate(238,254)"/>
<path d="M0 0 C3.3 0 6.6 0 10 0 C10 6.27 10 12.54 10 19 C13.63 19 17.26 19 21 19 C21 21.64 21 24.28 21 27 C14.07 27 7.14 27 0 27 C0 18.09 0 9.18 0 0 Z " fill="#FDFDFD" transform="translate(382,218)"/>
<path d="M0 0 C3.3 0 6.6 0 10 0 C10 8.91 10 17.82 10 27 C6.7 27 3.4 27 0 27 C-0.89332533 23.42669869 -1.05890833 21.17816662 -0.87890625 17.578125 C-0.83056641 16.55332031 -0.78222656 15.52851563 -0.73242188 14.47265625 C-0.67634766 13.40917969 -0.62027344 12.34570312 -0.5625 11.25 C-0.51029297 10.17105469 -0.45808594 9.09210938 -0.40429688 7.98046875 C-0.27480749 5.32005045 -0.13809828 2.65998532 0 0 Z " fill="#FDFDFD" transform="translate(270,218)"/>
</svg>
