 <svg  version="1.0" xmlns="http://www.w3.org/2000/svg"  width="300.000000pt" height="300.000000pt" viewBox="0 0 300.000000 300.000000"  preserveAspectRatio="xMidYMid meet">  <g transform="translate(0.000000,300.000000) scale(0.100000,-0.100000)" fill="#ffffff" stroke="none"> <path d="M444 1455 l-72 -185 38 0 38 0 32 95 c17 52 35 95 40 95 5 0 23 -43 40 -95 l32 -95 38 0 38 0 -72 185 c-39 102 -73 185 -76 185 -3 0 -37 -83 -76 -185z"/> <path d="M680 1565 l0 -75 35 0 c34 0 35 1 35 40 0 38 2 40 30 40 37 0 86 -24 99 -48 10 -18 14 -50 12 -95 -2 -45 -50 -87 -100 -87 l-41 0 0 40 c0 39 -1 40 -35 40 l-35 0 0 -75 0 -75 70 0 c120 0 189 44 211 132 17 74 -1 147 -46 187 -42 37 -90 51 -172 51 l-63 0 0 -75z"/> <path d="M999 1593 c10 -27 42 -110 71 -186 29 -76 57 -134 61 -130 4 4 29 62 54 128 26 66 51 130 56 143 8 20 6 22 -30 22 -38 0 -38 0 -56 -60 -10 -34 -21 -63 -25 -65 -3 -2 -21 41 -40 96 l-35 99 -37 0 -38 0 19 -47z"/> <path d="M1310 1485 l0 -155 -25 0 c-21 0 -25 -5 -25 -30 l0 -30 80 0 80 0 0 30 c0 23 -4 30 -20 30 -19 0 -20 7 -20 155 l0 155 -35 0 -35 0 0 -155z"/> <path d="M1430 1605 l0 -34 59 -3 59 -3 -23 -58 c-42 -102 -42 -99 1 -95 38 3 38 3 75 96 60 148 67 132 -60 132 l-111 0 0 -35z"/> <path d="M1758 1620 c-97 -52 -122 -195 -51 -288 31 -41 77 -62 138 -62 61 0 107 21 138 61 31 43 39 68 39 130 -2 137 -143 222 -264 159z m170 -85 c17 -20 22 -38 22 -80 0 -46 -5 -60 -29 -87 -25 -28 -36 -33 -76 -33 -40 0 -51 5 -76 33 -24 27 -29 41 -29 86 0 39 6 60 21 80 40 50 123 51 167 1z"/> <path d="M1820 1475 c-19 -23 -8 -50 22 -53 19 -2 28 2 33 18 12 39 -29 66 -55 35z"/> <path d="M2042 1608 l3 -33 65 -3 c103 -4 112 -7 108 -45 l-3 -32 -85 -5 -85 -5 -3 -107 -3 -108 35 0 35 0 3 72 c2 60 6 73 20 76 13 3 27 -16 55 -72 37 -74 38 -76 75 -76 l37 0 -35 77 -35 77 26 20 c55 45 51 141 -8 176 -25 16 -50 20 -120 20 l-88 0 3 -32z"/> <path d="M2332 1608 c13 -18 45 -63 71 -99 l47 -67 0 -86 0 -86 35 0 35 0 0 86 0 85 46 65 46 64 -43 0 c-35 0 -47 -5 -64 -27 l-22 -26 -43 61 c-42 60 -44 62 -88 62 l-44 0 24 -32z"/> <path d="M1456 1331 c-3 -4 -10 -20 -15 -35 l-11 -26 110 0 110 0 0 35 0 35 -94 0 c-52 0 -97 -4 -100 -9z"/> </g> </svg> 
