<svg xmlns="http://www.w3.org/2000/svg" width="500" height="500" viewBox="0 0 500 500" version="1.1"><path d="M 228.932 9.050 C 206.899 10.636, 175.163 18.319, 156 26.706 C 126.471 39.631, 118.286 48.257, 119.190 65.500 C 119.791 76.965, 125.836 86.274, 135.900 91.233 C 139.648 93.080, 142.167 93.500, 149.500 93.500 C 158.354 93.500, 158.679 93.413, 169.500 88.123 C 191.119 77.555, 209.592 72.190, 231.856 70.013 C 306.974 62.667, 377.633 101.819, 411.907 169.778 C 442.416 230.271, 435.337 304.121, 393.743 359.266 C 381.137 375.979, 361.833 393.530, 344.624 403.925 C 288.357 437.912, 222.567 440.025, 165 409.694 C 142.152 397.656, 120.153 378.711, 104.605 357.686 C 64.606 303.595, 57.779 232.767, 86.707 172 C 92.884 159.026, 94 155.591, 94 149.556 C 94 141.529, 91.553 134.831, 86.611 129.335 C 80.643 122.697, 74.305 119.651, 65.500 119.190 C 48.871 118.318, 38.123 128.108, 27.830 153.500 C 16.777 180.766, 11.365 202.501, 9.030 229 C 7.620 245.003, 7.751 257.685, 9.497 274.312 C 13.325 310.762, 24.032 343.730, 41.739 373.587 C 61.663 407.182, 91.935 437.416, 126.500 458.241 C 133.501 462.459, 158.235 474.124, 167.077 477.379 C 180.047 482.152, 196.662 486.337, 213.500 489.073 C 233.401 492.307, 265.385 492.352, 285.500 489.174 C 293.200 487.958, 301.075 486.539, 303 486.022 C 332.386 478.123, 340.828 475.010, 361.712 464.376 C 422.587 433.376, 469.649 373.166, 484.985 306.662 C 489.953 285.119, 491.289 273.384, 491.321 251 C 491.350 231.133, 490.850 224.767, 487.867 207 C 485.613 193.576, 478.331 168.504, 473.490 157.500 C 456.532 118.953, 439.041 94.724, 408.498 67.472 C 382.622 44.385, 346.992 25.282, 313.364 16.467 C 285.293 9.109, 259.544 6.847, 228.932 9.050" stroke="none" fill="#ffffff" fill-rule="evenodd"/></svg>
