<?xml version="1.0" encoding="UTF-8"?>
<svg version="1.1" xmlns="http://www.w3.org/2000/svg" width="120" height="120">
<path d="M0 0 C1.03769531 0.28649414 2.07539062 0.57298828 3.14453125 0.86816406 C4.25699219 1.19139648 5.36945313 1.51462891 6.515625 1.84765625 C7.66417969 2.16959961 8.81273438 2.49154297 9.99609375 2.82324219 C13.59076079 3.83608786 17.17861449 4.87054941 20.765625 5.91015625 C21.89033203 6.23322754 23.01503906 6.55629883 24.17382812 6.88916016 C30.16240645 8.60994459 36.14639185 10.34534475 42.1171875 12.12695312 C43.9417435 12.66651578 45.77016627 13.19311588 47.6015625 13.70898438 C48.50132813 13.96615234 49.40109375 14.22332031 50.328125 14.48828125 C51.53662109 14.82714355 51.53662109 14.82714355 52.76953125 15.17285156 C54.765625 15.91015625 54.765625 15.91015625 56.765625 17.91015625 C57.203125 20.34765625 57.203125 20.34765625 56.765625 22.91015625 C53.41382964 25.25276033 49.91434022 26.74503266 46.09765625 28.171875 C45.03998047 28.56826172 43.98230469 28.96464844 42.89257812 29.37304688 C41.79880859 29.77716797 40.70503906 30.18128906 39.578125 30.59765625 C38.47275391 31.01337891 37.36738281 31.42910156 36.22851562 31.85742188 C28.03275092 34.91015625 28.03275092 34.91015625 25.765625 34.91015625 C25.59401855 35.51021484 25.42241211 36.11027344 25.24560547 36.72851562 C23.39340608 43.06840658 21.27803686 49.25266156 18.890625 55.41015625 C18.56449219 56.3021875 18.23835938 57.19421875 17.90234375 58.11328125 C15.44304068 64.42900118 15.44304068 64.42900118 12.2578125 66.69140625 C9.765625 66.91015625 9.765625 66.91015625 7.7243042 65.75946045 C5.28356269 63.45501288 4.79530887 61.77145986 3.93457031 58.54003906 C3.63456116 57.44169739 3.334552 56.34335571 3.02545166 55.21173096 C2.71799011 54.02424255 2.41052856 52.83675415 2.09375 51.61328125 C1.76646912 50.39114929 1.43918823 49.16901733 1.10198975 47.90985107 C0.41252551 45.32234886 -0.27100974 42.73411655 -0.94482422 40.14257812 C-1.80516791 36.83531188 -2.68613112 33.5339943 -3.57435226 30.23411942 C-4.42357383 27.07132764 -5.25831954 23.90473905 -6.09375 20.73828125 C-6.40930847 19.55888977 -6.72486694 18.37949829 -7.04998779 17.16436768 C-8.48684265 11.61018706 -9.6522483 6.6543549 -9.234375 0.91015625 C-5.75183822 -1.31344247 -3.91572052 -1.10848934 0 0 Z " fill="#EBEBED" transform="translate(63.234375,53.08984375)"/>
<path d="M0 0 C11.28210888 8.32530435 17.86954431 19.12271983 20 33 C20.57608696 39.84782609 20.57608696 39.84782609 19 43 C16.1875 43.25 16.1875 43.25 13 43 C10.0566544 40.02178064 9.59502979 37.51823161 9.1875 33.4375 C7.62752065 23.02495488 2.2924691 14.46930214 -6 8 C-16.0693692 1.71466126 -26.55056043 -0.68183124 -38.27734375 1.65234375 C-45.81197077 3.70084795 -51.35404723 6.61744868 -57 12 C-57.56332031 12.52335937 -58.12664063 13.04671875 -58.70703125 13.5859375 C-66.68301782 21.86480963 -68.72603863 31.86671598 -68.59594727 42.98242188 C-68.28351433 50.06140122 -66.55191308 55.83348424 -63 62 C-62.6390625 62.67160156 -62.278125 63.34320313 -61.90625 64.03515625 C-57.4113903 71.33930327 -49.38076741 76.08594017 -41.3046875 78.45703125 C-37.94978488 79.24742356 -34.5710585 79.8558387 -31.1640625 80.375 C-28.63857088 81.10438386 -27.5653265 81.90266711 -26 84 C-26.42105263 88.42105263 -26.42105263 88.42105263 -28 90 C-41.23733756 90.85402178 -53.03661952 86.09387923 -63.25 77.75 C-72.71580604 68.90490255 -78.37364071 57.37485296 -79.23828125 44.43359375 C-79.51488538 29.54064489 -75.33473676 18.97421041 -66.75 6.8125 C-48.47705907 -11.87573504 -21.51665697 -14.1991253 0 0 Z " fill="#D6D6DA" transform="translate(82,11)"/>
<path d="M0 0 C6.39881279 5.10087916 10.62769025 12.63613057 12.8125 20.4375 C12.75 23.6875 12.75 23.6875 11.8125 26.4375 C9.25 27.8125 9.25 27.8125 6.8125 28.4375 C3.69662179 25.96628625 2.50002639 23.85338602 1.4375 20.125 C-0.31283315 14.43407724 -3.1487761 10.33094728 -8.25 7.15234375 C-15.36612869 3.50271158 -22.00017304 2.05821075 -29.890625 4.15625 C-37.63480778 7.03133582 -41.9768667 11.32298166 -46.1875 18.4375 C-49.22230952 25.26582141 -49.07430426 31.69418085 -46.5 38.625 C-43.08160359 46.30745884 -38.89746944 50.17278704 -31.1875 53.4375 C-30.51589844 53.72625 -29.84429687 54.015 -29.15234375 54.3125 C-28.52457031 54.580625 -27.89679687 54.84875 -27.25 55.125 C-24.1875 56.4375 -24.1875 56.4375 -23.1875 57.4375 C-23 59.875 -23 59.875 -23.1875 62.4375 C-25.1875 64.4375 -25.1875 64.4375 -27.0703125 64.5546875 C-37.29272624 63.45052434 -44.13414934 58.82736549 -51.1875 51.4375 C-58.21754243 42.47931487 -59.25874457 32.5671673 -58.1875 21.4375 C-55.64073058 11.35703128 -49.82538344 2.95834833 -40.875 -2.4375 C-26.75087163 -9.41477096 -13.18879613 -8.77562204 0 0 Z " fill="#D5D5D9" transform="translate(75.1875,22.5625)"/>
<path d="M0 0 C2.96585244 1.73566313 5.51827885 3.43919592 7.5625 6.25 C7.9375 8.875 7.9375 8.875 7.5625 11.25 C5.5625 13.25 5.5625 13.25 3.25 13.625 C0.5625 13.25 0.5625 13.25 -1.625 11.25 C-5.73849263 8.32484969 -9.53676721 8.42918761 -14.4375 9.25 C-17.37173195 11.04646854 -18.90955355 12.1941071 -20.4375 15.25 C-20.95888723 18.97419448 -21.4060074 22.7328975 -19.3203125 26 C-18.86398438 26.495 -18.40765625 26.99 -17.9375 27.5 C-15.4375 30.25 -15.4375 30.25 -15 33 C-15.4375 35.25 -15.4375 35.25 -17.4375 37.25 C-19.75 37.6875 -19.75 37.6875 -22.4375 37.25 C-27.39464185 33.38101124 -30.65485565 28.26467567 -31.859375 22.0859375 C-32.26596945 15.69336916 -30.10313261 10.42397904 -26.4375 5.25 C-19.12942445 -1.77371463 -9.554687 -4.57978418 0 0 Z " fill="#D3D3D6" transform="translate(62.4375,31.75)"/>
</svg>
