<svg xmlns="http://www.w3.org/2000/svg" width="1080" height="1080" viewBox="0 0 1080 1080" version="1.1"><path d="M 520.500 86.046 C 502.337 86.905, 476.401 89.513, 465.500 91.576 C 435.361 97.279, 418.737 101.442, 395.947 108.990 C 362.388 120.106, 325.963 137.070, 313.652 147.315 C 299.196 159.347, 291.554 179.271, 294.020 198.500 C 294.799 204.569, 296.115 208.688, 299.475 215.566 C 306.653 230.260, 317.183 239.662, 333 245.503 C 339.228 247.803, 342.111 248.274, 350 248.284 C 361.978 248.299, 366.663 246.936, 385.187 238.049 C 426.957 218.010, 465.084 206.947, 506.500 202.849 C 521.847 201.330, 559.113 201.362, 574 202.907 C 690.477 214.992, 791.411 284.734, 843.380 389.040 C 862.246 426.907, 872.387 462.632, 876.996 507.466 C 879.502 531.836, 879.513 548.324, 877.039 572.236 C 874.178 599.889, 871 615.472, 862.154 645.228 C 858.594 657.204, 848.999 680.149, 841.457 694.721 C 793.162 788.045, 707.369 852.595, 605.174 872.501 C 552.979 882.667, 499.621 880.571, 448.500 866.345 C 439.700 863.896, 430.250 861.051, 427.500 860.023 C 386.647 844.754, 358.795 829.237, 327.306 804.203 C 312.649 792.551, 283.417 763.062, 272.584 749 C 233.219 697.904, 210.586 642.256, 202.831 577.500 C 201.084 562.911, 201.095 516.951, 202.849 502.500 C 208.040 459.731, 220.873 417.840, 239.893 381.571 C 246.714 368.565, 248.331 361.794, 247.755 348.667 C 247.340 339.210, 246.807 336.401, 244.272 330.323 C 236.916 312.689, 221.293 299.077, 204.270 295.469 C 196.420 293.806, 184.467 293.613, 178 295.046 C 163.417 298.276, 149.058 308.812, 141.267 322 C 137.321 328.680, 125.177 353.553, 121.005 363.500 C 96.207 422.631, 83.294 490.694, 85.338 551.500 C 87.695 621.655, 103.335 683.846, 133.911 744.643 C 159.639 795.803, 194.610 840.952, 239.500 880.964 C 294.245 929.759, 361.506 964.825, 433 981.844 C 472.571 991.263, 496.595 993.999, 539.753 993.999 C 583.172 994, 610.934 990.728, 650.555 980.938 C 726.227 962.239, 797.556 922.807, 853.852 868.550 C 871.198 851.832, 897.970 820.857, 909.039 804.698 C 911.374 801.289, 915.231 795.710, 917.610 792.300 C 944.435 753.854, 969.303 697.137, 981.545 646.485 C 990.580 609.104, 992.998 586.518, 992.998 539.500 C 992.998 499.987, 992.196 488.684, 987.431 461 C 977.064 400.771, 952.789 340.117, 918.194 288 C 891.758 248.174, 852.170 206.356, 813.174 177.063 C 775.901 149.065, 733.540 126.319, 691.500 111.729 C 670.390 104.402, 660.467 101.547, 635.500 95.618 C 605.974 88.606, 555.387 84.395, 520.500 86.046" stroke="none" fill="#000000" fill-rule="evenodd"/></svg>